<svg width="589" height="568" viewBox="0 0 589 568" fill="none" xmlns="http://www.w3.org/2000/svg">
<g filter="url(#filter0_d_26_82)">
<path opacity="0.4" d="M339.43 255.344C332.204 251.178 327.019 251.093 323.874 255.004C320.644 258.915 319.114 265.546 319.114 274.812V324.969C319.114 334.49 318.264 342.396 316.478 348.687C314.693 355.233 311.718 359.824 307.638 362.544C303.643 365.35 298.202 366.03 291.317 364.755C284.602 363.564 276.186 359.994 266.155 354.213L261.395 351.408V311.877L267.431 315.363C274.656 319.528 279.416 320.038 281.796 317.063C284.347 314.087 285.622 307.967 285.622 298.7V254.494C285.622 242.932 286.727 233.836 289.022 227.205C291.232 220.489 295.737 216.238 302.453 214.368C295.737 204.762 291.232 195.24 289.022 185.974C286.812 176.708 285.707 166.336 285.707 154.775V110.568C285.707 101.302 284.432 93.651 281.881 87.7851C279.501 82.0043 274.656 76.9886 267.516 72.823L261.48 69.3375V29.8069L266.24 32.6123C276.271 38.3931 284.687 44.599 291.402 51.1449C298.287 57.7759 303.728 64.7469 307.723 72.2279C311.888 79.709 314.863 87.7001 316.563 96.2864C318.349 104.618 319.199 113.544 319.199 123.065V173.222C319.199 182.489 320.814 190.99 323.959 198.556C327.189 206.122 332.374 212.073 339.515 216.153L339.43 255.344Z" fill="url(#paint0_linear_26_82)"/>
<path opacity="0.4" d="M157.349 110.058C164.574 114.224 169.759 114.309 172.905 110.398C176.135 106.488 177.665 99.8568 177.665 90.5905V40.4334C177.665 30.912 178.515 23.0059 180.3 16.715C182.085 10.169 184.975 5.57839 188.971 2.77299C193.136 0.0526013 198.576 -0.627496 205.291 0.562674C212.177 1.83786 220.677 5.40837 230.708 11.2742L235.468 14.0796V53.6102L229.433 50.1247C222.207 45.9591 217.362 45.3641 214.812 48.3395C212.432 51.3999 211.242 57.5208 211.242 66.8721V111.078C211.242 122.555 210.137 131.736 207.842 138.367C205.631 145.083 201.126 149.334 194.411 151.204C201.126 160.811 205.631 170.332 207.842 179.598C210.052 188.865 211.157 199.236 211.157 210.798V255.004C211.157 264.27 212.347 271.836 214.727 277.702C217.277 283.568 222.122 288.669 229.348 292.749L235.383 296.235V335.766L230.623 332.96C220.592 327.179 212.092 320.888 205.206 314.342C198.491 307.797 193.051 300.826 188.885 293.259C184.89 285.863 182 277.872 180.3 269.371C178.515 261.04 177.665 252.114 177.665 242.592V192.435C177.665 183.169 176.05 174.668 172.905 167.101C169.674 159.535 164.489 153.585 157.349 149.504V110.058Z" fill="url(#paint1_linear_26_82)"/>
<path opacity="0.15" d="M363.996 10.9343L543.442 114.564L543.357 544.81L363.911 441.266L363.996 10.9343Z" fill="url(#paint2_linear_26_82)"/>
<path d="M330.249 67.2971L473.058 149.674V189.205L330.249 106.828V67.2971Z" fill="#587298"/>
<path opacity="0.2" d="M387.373 250.329L522.701 328.455V448.067L387.373 369.941V250.329Z" fill="url(#paint3_linear_26_82)"/>
<path opacity="0.15" d="M386.012 158.6L523.38 237.916V251.433L386.012 172.117V158.6Z" fill="white"/>
<path opacity="0.15" d="M386.012 185.804L504.764 254.324V267.841L386.012 199.321V185.804Z" fill="white"/>
<path opacity="0.15" d="M386.012 212.668L486.828 270.816V284.333L386.012 226.185V212.668Z" fill="white"/>
<path opacity="0.2" d="M363.996 10.9343L543.442 114.564V172.202L363.911 68.6576L363.996 10.9343Z" fill="url(#paint4_linear_26_82)"/>
<path opacity="0.2" d="M408.794 66.0221C408.794 74.7784 403.693 78.859 397.403 75.2034C391.113 71.5479 386.012 61.6015 386.012 52.8453C386.012 44.089 391.113 40.0084 397.403 43.6639C403.693 47.3195 408.794 57.3509 408.794 66.0221Z" fill="white"/>
<path opacity="0.15" d="M40.6372 142.703L593 461.499L592.915 892L40.5522 573.205L40.6372 142.703Z" fill="url(#paint5_linear_26_82)"/>
<path d="M4 248.798L146.723 331.175V370.705L4 288.414V248.798Z" fill="#EA8C4F"/>
<path opacity="0.15" d="M77.8689 357.444L394.768 540.39V553.907L77.8689 370.961V357.444Z" fill="white"/>
<path opacity="0.15" d="M77.8689 384.648L351.245 542.43V555.947L77.8689 398.165V384.648Z" fill="white"/>
<path opacity="0.15" d="M77.8689 411.596L310.528 545.915V559.432L77.8689 425.113V411.596Z" fill="white"/>
<path opacity="0.2" d="M26.0158 425.029L257.995 558.923V678.535L26.0158 544.556V425.029Z" fill="url(#paint6_linear_26_82)"/>
<path opacity="0.15" d="M49.3922 469.15L233.683 575.5V589.017L49.3922 482.667V469.15Z" fill="white"/>
<path opacity="0.15" d="M49.3922 496.354L196.961 581.536V595.053L49.3922 509.785V496.354Z" fill="white"/>
<path opacity="0.2" d="M40.6368 142.703L592.235 461.159V519.477L40.6368 201.106V142.703Z" fill="url(#paint7_linear_26_82)"/>
<path opacity="0.2" d="M100.736 206.547C100.736 215.304 95.6355 219.384 89.3451 215.729C83.0547 212.073 77.9544 202.127 77.9544 193.37C77.9544 184.614 83.0547 180.534 89.3451 184.189C95.6355 187.845 100.736 197.876 100.736 206.547Z" fill="white"/>
</g>
<defs>
<filter id="filter0_d_26_82" x="0" y="0" width="597" height="900" filterUnits="userSpaceOnUse" color-interpolation-filters="sRGB">
<feFlood flood-opacity="0" result="BackgroundImageFix"/>
<feColorMatrix in="SourceAlpha" type="matrix" values="0 0 0 0 0 0 0 0 0 0 0 0 0 0 0 0 0 0 127 0" result="hardAlpha"/>
<feOffset dy="4"/>
<feGaussianBlur stdDeviation="2"/>
<feComposite in2="hardAlpha" operator="out"/>
<feColorMatrix type="matrix" values="0 0 0 0 0 0 0 0 0 0 0 0 0 0 0 0 0 0 0.25 0"/>
<feBlend mode="normal" in2="BackgroundImageFix" result="effect1_dropShadow_26_82"/>
<feBlend mode="normal" in="SourceGraphic" in2="effect1_dropShadow_26_82" result="shape"/>
</filter>
<linearGradient id="paint0_linear_26_82" x1="388.36" y1="17.8759" x2="249.12" y2="259.239" gradientUnits="userSpaceOnUse">
<stop stop-color="#424C57"/>
<stop offset="0.903" stop-color="white" stop-opacity="0"/>
</linearGradient>
<linearGradient id="paint1_linear_26_82" x1="307.984" y1="1.51234" x2="168.727" y2="242.845" gradientUnits="userSpaceOnUse">
<stop stop-color="#414B56"/>
<stop offset="0.903" stop-color="white" stop-opacity="0"/>
</linearGradient>
<linearGradient id="paint2_linear_26_82" x1="546.816" y1="116.519" x2="375.208" y2="413.807" gradientUnits="userSpaceOnUse">
<stop stop-color="white"/>
<stop offset="1" stop-color="white" stop-opacity="0"/>
</linearGradient>
<linearGradient id="paint3_linear_26_82" x1="480.95" y1="304.285" x2="433.254" y2="386.909" gradientUnits="userSpaceOnUse">
<stop stop-color="white"/>
<stop offset="1" stop-color="white" stop-opacity="0"/>
</linearGradient>
<linearGradient id="paint4_linear_26_82" x1="425.521" y1="11.8282" x2="480.243" y2="166.739" gradientUnits="userSpaceOnUse">
<stop stop-color="#424C58"/>
<stop offset="1" stop-color="white" stop-opacity="0"/>
</linearGradient>
<linearGradient id="paint5_linear_26_82" x1="409.97" y1="355.856" x2="319.072" y2="513.362" gradientUnits="userSpaceOnUse">
<stop stop-color="white"/>
<stop offset="1" stop-color="white" stop-opacity="0"/>
</linearGradient>
<linearGradient id="paint6_linear_26_82" x1="167.887" y1="506.882" x2="120.192" y2="589.507" gradientUnits="userSpaceOnUse">
<stop stop-color="#434D58"/>
<stop offset="1" stop-color="white" stop-opacity="0"/>
</linearGradient>
<linearGradient id="paint7_linear_26_82" x1="177.501" y1="95.7139" x2="386.973" y2="450.519" gradientUnits="userSpaceOnUse">
<stop stop-color="#546F94"/>
<stop offset="1" stop-color="white" stop-opacity="0"/>
</linearGradient>
</defs>
</svg>
